<svg width="0" height="0" class="hidden">
  <symbol xmlns="http://www.w3.org/2000/svg" viewBox="0 0 30 30" id="humidity">
    <path fill="rgba(255, 255, 255, 0.6)" d="M7.56 17.19c0-.88.24-1.89.72-3.03s1.1-2.25 1.86-3.31a36.4 36.4 0 014.06-4.67l.75-.72c.25.26.53.5.83.72.41.42 1.04 1.11 1.88 2.09s1.57 1.85 2.17 2.65c.71 1.01 1.32 2.1 1.81 3.25s.74 2.16.74 3.03a7.44 7.44 0 01-2.15 5.22 7.4 7.4 0 01-5.28 2.17c-1 0-1.95-.19-2.86-.57a7.23 7.23 0 01-4.53-6.83zm2.26-2.93c0 .83.17 1.49.52 1.99.35.49.88.74 1.59.74.72 0 1.25-.25 1.61-.74.35-.49.53-1.15.54-1.99a3.49 3.49 0 00-.54-2c-.35-.49-.89-.74-1.61-.74-.71 0-1.24.25-1.59.74-.35.5-.52 1.16-.52 2zm1.57 0v-.35l.02-.33c.01-.14.02-.25.05-.32l.09-.24c.04-.08.09-.15.15-.18a.44.44 0 01.23-.06c.14 0 .25.04.33.12s.14.21.17.38a5.16 5.16 0 01.07.97l-.01.52-.06.45c-.03.17-.09.3-.17.38s-.19.12-.33.12a.44.44 0 01-.23-.06.34.34 0 01-.15-.18 1.44 1.44 0 01-.14-.56l-.02-.32v-.34zm.59 7.75h1.32l4.99-10.74h-1.35l-4.96 10.74zm4.3-2.99c.01.84.2 1.5.55 2 .35.49.89.74 1.6.74.72 0 1.25-.25 1.6-.74.35-.49.52-1.16.53-2a3.43 3.43 0 00-.53-1.99c-.35-.49-.88-.74-1.6-.74-.71 0-1.25.25-1.6.74a3.36 3.36 0 00-.55 1.99zm1.57 0l.01-.52.06-.45c.03-.18.09-.3.17-.38s.19-.12.33-.12c.09 0 .17.02.24.06.07.04.12.1.16.19l.1.24c.03.07.04.18.05.32l.01.32v.69l-.01.32-.05.32-.1.24-.16.19-.24.06c-.14 0-.25-.04-.33-.12s-.14-.21-.17-.38a5.72 5.72 0 01-.07-.98z"></path>
  </symbol>
  <symbol xmlns="http://www.w3.org/2000/svg" viewBox="0 0 387.163 387.163" id="sunrise">
    <path d="M379.662 221.953h-94.195c-3.83-47.34-43.576-84.692-91.886-84.692s-88.056 37.352-91.886 84.692H7.5a7.5 7.5 0 000 15h372.163a7.5 7.5 0 10-.001-15zm-262.912 0c3.784-39.058 36.797-69.692 76.831-69.692 40.033 0 73.047 30.635 76.831 69.692H116.75zm223.914 37.628H46.498a7.5 7.5 0 000 15h294.166a7.5 7.5 0 007.5-7.5 7.5 7.5 0 00-7.5-7.5zm-40.498 37.629H86.996a7.5 7.5 0 000 15h213.17a7.5 7.5 0 007.5-7.5 7.5 7.5 0 00-7.5-7.5zM193.578 118.953a7.5 7.5 0 007.499-7.5v-29a7.5 7.5 0 10-14.999 0v29a7.5 7.5 0 007.5 7.5zm-56.47 6.618a7.5 7.5 0 006.808 4.345 7.5 7.5 0 006.798-10.659l-12.206-26.306a7.499 7.499 0 00-9.96-3.646 7.5 7.5 0 00-3.646 9.96l12.206 26.306zm-60.622 14.694l22.145 18.725a7.47 7.47 0 004.839 1.773 7.5 7.5 0 004.846-13.227l-22.145-18.725a7.498 7.498 0 00-10.569.885 7.499 7.499 0 00.884 10.569z"></path>
    <path d="M49.825 197.836l27.969 7.664a7.493 7.493 0 009.215-5.252 7.499 7.499 0 00-5.251-9.215l-27.969-7.664a7.5 7.5 0 00-3.964 14.467zm190.262-68.619a7.477 7.477 0 003.152.699 7.502 7.502 0 006.809-4.345l12.206-26.306a7.5 7.5 0 00-3.647-9.96 7.498 7.498 0 00-9.961 3.646l-12.206 26.306a7.5 7.5 0 003.647 9.96zm43.6 31.546a7.47 7.47 0 004.839-1.773l22.145-18.725a7.5 7.5 0 00-9.685-11.454l-22.145 18.725a7.5 7.5 0 004.846 13.227zm16.459 39.485a7.504 7.504 0 007.229 5.52c.655 0 1.322-.087 1.986-.268l27.97-7.664a7.5 7.5 0 005.251-9.215 7.496 7.496 0 00-9.216-5.251l-27.97 7.664a7.498 7.498 0 00-5.25 9.214z"></path>
  </symbol>
  <symbol xmlns="http://www.w3.org/2000/svg" viewBox="0 0 512 512" id="thermometer">
    <path d="M341.333 288.593V85.333C341.333 38.205 303.128 0 256 0s-85.333 38.205-85.333 85.333v203.259C144.48 312.03 128 346.091 128 384c0 70.693 57.308 128 128 128s128-57.307 128-128c0-37.909-16.48-71.97-42.667-95.407zM256 469.333c-47.128 0-85.333-38.205-85.333-85.333 0-24.637 10.441-47.492 28.455-63.615l14.212-12.72V85.333c0-23.564 19.103-42.667 42.667-42.667s42.667 19.102 42.667 42.667v222.332l14.212 12.72c18.014 16.123 28.455 38.977 28.455 63.615-.002 47.128-38.207 85.333-85.335 85.333z"></path>
    <path d="M234.667 170.667h42.667v256h-42.667z"></path>
    <circle cx="256" cy="384" r="64"></circle>
  </symbol>
  <symbol xmlns="http://www.w3.org/2000/svg" viewBox="0 0 448 448" id="wind">
    <path d="M384 112c-35.297 0-64 28.711-64 64 0 8.836 7.156 16 16 16s16-7.164 16-16c0-17.649 14.359-32 32-32s32 14.351 32 32-14.359 32-32 32H17.266c-8.844 0-16 7.164-16 16s7.156 16 16 16H384c35.297 0 64-28.711 64-64s-28.703-64-64-64z"></path>
    <path d="M224 48c-35.297 0-64 28.711-64 64 0 8.836 7.156 16 16 16s16-7.164 16-16c0-17.649 14.359-32 32-32s32 14.351 32 32-14.359 32-32 32H16c-8.844 0-16 7.164-16 16s7.156 16 16 16h208c35.297 0 64-28.711 64-64s-28.703-64-64-64zm0 224H16c-8.844 0-16 7.164-16 16s7.156 16 16 16h208c17.641 0 32 14.351 32 32s-14.359 32-32 32-32-14.351-32-32c0-8.836-7.156-16-16-16s-16 7.164-16 16c0 35.289 28.703 64 64 64s64-28.711 64-64-28.703-64-64-64z"></path>
  </symbol>
</svg>