<svg width="0" height="0" class="hidden">
  <symbol xmlns="http://www.w3.org/2000/svg" viewBox="0 0 387.163 387.163" id="sunrise">
    <path d="M379.662 221.953h-94.195c-3.83-47.34-43.576-84.692-91.886-84.692s-88.056 37.352-91.886 84.692H7.5a7.5 7.5 0 000 15h372.163a7.5 7.5 0 10-.001-15zm-262.912 0c3.784-39.058 36.797-69.692 76.831-69.692 40.033 0 73.047 30.635 76.831 69.692H116.75zm223.914 37.628H46.498a7.5 7.5 0 000 15h294.166a7.5 7.5 0 007.5-7.5 7.5 7.5 0 00-7.5-7.5zm-40.498 37.629H86.996a7.5 7.5 0 000 15h213.17a7.5 7.5 0 007.5-7.5 7.5 7.5 0 00-7.5-7.5zM193.578 118.953a7.5 7.5 0 007.499-7.5v-29a7.5 7.5 0 10-14.999 0v29a7.5 7.5 0 007.5 7.5zm-56.47 6.618a7.5 7.5 0 006.808 4.345 7.5 7.5 0 006.798-10.659l-12.206-26.306a7.499 7.499 0 00-9.96-3.646 7.5 7.5 0 00-3.646 9.96l12.206 26.306zm-60.622 14.694l22.145 18.725a7.47 7.47 0 004.839 1.773 7.5 7.5 0 004.846-13.227l-22.145-18.725a7.498 7.498 0 00-10.569.885 7.499 7.499 0 00.884 10.569z"></path>
    <path d="M49.825 197.836l27.969 7.664a7.493 7.493 0 009.215-5.252 7.499 7.499 0 00-5.251-9.215l-27.969-7.664a7.5 7.5 0 00-3.964 14.467zm190.262-68.619a7.477 7.477 0 003.152.699 7.502 7.502 0 006.809-4.345l12.206-26.306a7.5 7.5 0 00-3.647-9.96 7.498 7.498 0 00-9.961 3.646l-12.206 26.306a7.5 7.5 0 003.647 9.96zm43.6 31.546a7.47 7.47 0 004.839-1.773l22.145-18.725a7.5 7.5 0 00-9.685-11.454l-22.145 18.725a7.5 7.5 0 004.846 13.227zm16.459 39.485a7.504 7.504 0 007.229 5.52c.655 0 1.322-.087 1.986-.268l27.97-7.664a7.5 7.5 0 005.251-9.215 7.496 7.496 0 00-9.216-5.251l-27.97 7.664a7.498 7.498 0 00-5.25 9.214z"></path>
  </symbol>
  <symbol xmlns="http://www.w3.org/2000/svg" viewBox="0 0 512 512" id="thermometer">
    <path d="M341.333 288.593V85.333C341.333 38.205 303.128 0 256 0s-85.333 38.205-85.333 85.333v203.259C144.48 312.03 128 346.091 128 384c0 70.693 57.308 128 128 128s128-57.307 128-128c0-37.909-16.48-71.97-42.667-95.407zM256 469.333c-47.128 0-85.333-38.205-85.333-85.333 0-24.637 10.441-47.492 28.455-63.615l14.212-12.72V85.333c0-23.564 19.103-42.667 42.667-42.667s42.667 19.102 42.667 42.667v222.332l14.212 12.72c18.014 16.123 28.455 38.977 28.455 63.615-.002 47.128-38.207 85.333-85.335 85.333z"></path>
    <path d="M234.667 170.667h42.667v256h-42.667z"></path>
    <circle cx="256" cy="384" r="64"></circle>
  </symbol>
  <symbol xmlns="http://www.w3.org/2000/svg" viewBox="0 0 448 448" id="wind">
    <path d="M384 112c-35.297 0-64 28.711-64 64 0 8.836 7.156 16 16 16s16-7.164 16-16c0-17.649 14.359-32 32-32s32 14.351 32 32-14.359 32-32 32H17.266c-8.844 0-16 7.164-16 16s7.156 16 16 16H384c35.297 0 64-28.711 64-64s-28.703-64-64-64z"></path>
    <path d="M224 48c-35.297 0-64 28.711-64 64 0 8.836 7.156 16 16 16s16-7.164 16-16c0-17.649 14.359-32 32-32s32 14.351 32 32-14.359 32-32 32H16c-8.844 0-16 7.164-16 16s7.156 16 16 16h208c35.297 0 64-28.711 64-64s-28.703-64-64-64zm0 224H16c-8.844 0-16 7.164-16 16s7.156 16 16 16h208c17.641 0 32 14.351 32 32s-14.359 32-32 32-32-14.351-32-32c0-8.836-7.156-16-16-16s-16 7.164-16 16c0 35.289 28.703 64 64 64s64-28.711 64-64-28.703-64-64-64z"></path>
  </symbol>
</svg>